<svg xmlns="http://www.w3.org/2000/svg" viewBox="0 0 24 24" fill="currentColor">
  <path d="M20.447 20.452h-3.554v-5.569c0-1.328-.475-2.236-1.986-2.236-1.081 0-1.722.722-2.004 1.418-.103.25-.129.599-.129.948v5.439h-3.554s.05-8.814 0-9.752h3.554v1.381c.43-.664 1.195-1.61 2.905-1.61 2.122 0 3.714 1.388 3.714 4.37v5.611zM5.337 8.855c-1.144 0-1.915-.759-1.915-1.71 0-.955.77-1.71 1.906-1.71.726 0 1.904.755 1.904 1.71 0 .951-.178 1.71-1.895 1.71zm1.946 11.597H3.392V9.948h3.891v10.504zM22.225 0H1.771C.792 0 0 .774 0 1.729v20.542C0 23.227.792 24 1.771 24h20.451C23.2 24 24 23.227 24 22.271V1.729C24 .774 23.2 0 22.225 0z"/>
</svg>